<svg width="200" xmlns="http://www.w3.org/2000/svg" viewBox="0 0 348.67 70">
                                <g id="Layer_2" data-name="Layer 2">
                                    <g id="Layer_1-2" data-name="Layer 1">
                                        <g id="Logo_SilverBlue">
                                            <path class="cls-1" d="M63.06 15.35a41.71 41.71 0 0 1 6.92 23V50h-6.66V38.35A35 35 0 0 0 42 6.13L44.59 0a41.65 41.65 0 0 1 18.47 15.35ZM28.33 10A28.36 28.36 0 0 0 0 38.35V70h6.66V38.35a21.67 21.67 0 1 1 43.34 0V70h6.66V38.35A28.36 28.36 0 0 0 28.33 10Zm0 13.29a15 15 0 0 0-15 15V70H20V56.68h23V50H20V38.35a8.38 8.38 0 0 1 5.1-7.94 8.34 8.34 0 0 1 9.25 1.88 8.33 8.33 0 0 1 2.35 6.06v5h6.66v-5a15 15 0 0 0-15-15Z"></path>
                                        </g>
                                    </g>
                                </g>
                            </svg>